<svg width="86" height="86" viewBox="0 0 86 86" fill="none" xmlns="http://www.w3.org/2000/svg">
<rect width="86" height="86" rx="11" fill="#181E30"/>
<path d="M15.6674 45.293C16.1535 45.2136 17.7652 45.2288 18.312 45.2288L23.185 45.2339L30.568 45.2258C33.108 45.2242 35.7732 44.8944 37.9056 46.4993C40.441 48.4073 40.1582 51.7822 40.1615 54.5926L40.1648 60.4669L40.1623 65.9171C40.1575 70.2302 40.1894 74.2699 34.8942 75.1414C30.9875 75.2873 26.9336 75.0905 23.01 75.1627C20.343 75.1264 17.6676 75.2597 15.0088 75.0593C12.6877 74.8844 10.4947 72.731 10.3315 70.4273C10.0954 67.0964 10.1867 63.7043 10.1872 60.3698L10.1897 54.706C10.19 53.1129 10.1331 51.5473 10.367 49.9651C10.7831 47.1502 12.9592 45.5868 15.6674 45.293Z" fill="#11192C"/>
<path fill-rule="evenodd" clip-rule="evenodd" d="M40.0909 24.8524C39.5673 16.6094 32.4784 10.341 24.2334 10.83C15.9395 11.322 9.62556 18.4622 10.1523 26.754C10.6789 35.0458 17.8454 41.3297 26.135 40.7684C34.3756 40.2103 40.6144 33.0953 40.0909 24.8524ZM23.6441 15.2156C29.4949 14.4023 34.8971 18.4871 35.7086 24.3384C36.52 30.1896 32.4335 35.5904 26.582 36.4C20.7332 37.2092 15.3353 33.1249 14.5242 27.2763C13.7131 21.4278 17.7957 16.0287 23.6441 15.2156Z" fill="#A655F7"/>
<path fill-rule="evenodd" clip-rule="evenodd" d="M75.8475 59.246C75.3239 51.003 68.235 44.7345 59.99 45.2236C51.6961 45.7155 45.3822 52.8557 45.9089 61.1475C46.4355 69.4393 53.602 75.7233 61.8916 75.1619C70.1322 74.6039 76.371 67.4888 75.8475 59.246ZM59.4006 49.6091C65.2515 48.7959 70.6537 52.8806 71.4652 58.7319C72.2766 64.5831 68.1901 69.9839 62.3386 70.7936C56.4898 71.6027 51.0919 67.5184 50.2808 61.6699C49.4697 55.8214 53.5523 50.4222 59.4006 49.6091Z" fill="#A655F7"/>
<path d="M60.9265 21.3035C61.5787 20.5602 62.4262 19.836 63.1343 19.1167C65.5799 16.66 67.9447 14.1459 70.5074 11.8163C72.9601 9.58665 77.2594 12.5182 75.4296 15.8011C74.3715 17.6997 72.4669 18.9011 71.1522 20.4592C69.6206 22.2745 67.0622 24.1318 65.7111 25.9814C65.8418 26.2597 66.0436 26.6766 66.2663 26.8773C68.5825 28.9642 70.8744 31.3604 73.091 33.5313C74.9975 35.3985 77.1367 37.28 74.964 39.9596C74.2721 40.813 73.5504 40.9322 72.5574 41.0361C72.4398 41.0363 72.3221 41.0321 72.2047 41.0234C71.6652 40.9845 71.1464 40.7902 70.7052 40.4617C70.1987 40.083 69.4445 39.2699 68.9566 38.7899C67.6918 37.5606 66.4453 36.311 65.2173 35.0412C63.8171 33.6163 62.2026 32.2097 60.9258 30.6595C60.4015 31.2982 59.501 32.1237 58.898 32.7238C57.6709 33.9581 56.437 35.1847 55.196 36.4035C53.9554 37.6252 52.7711 38.8971 51.5198 40.1036C50.0403 41.5303 48.246 41.0785 46.6689 40.1672C44.8722 36.3944 46.7026 35.4849 49.1883 33.0369L53.4029 28.8248C54.3318 27.913 55.3719 27.0209 56.227 26.0544C54.4749 24.3584 52.7093 22.6123 51.0027 20.8076C49.6347 19.361 46.272 16.7783 45.9276 14.7142C45.5713 12.5797 47.1855 11.3879 49.0718 11.1051C51.1601 10.955 52.6723 13.16 54.0686 14.5423L60.9265 21.3035Z" fill="#6365EF"/>
</svg>
