<svg width="66" height="65" viewBox="0 0 66 65" fill="none" xmlns="http://www.w3.org/2000/svg">
<path d="M5.54585 34.4898C6.03196 34.4104 7.6436 34.4256 8.19042 34.4256L13.0634 34.4307L20.4464 34.4225C22.9864 34.421 25.6516 34.0912 27.7841 35.6961C30.3195 37.6041 30.0366 40.9789 30.0399 43.7893L30.0433 49.6637L30.0407 55.1139C30.0359 59.427 30.0678 63.4666 24.7726 64.3382C20.8659 64.484 16.812 64.2873 12.8884 64.3595C10.2214 64.3232 7.54599 64.4565 4.88723 64.256C2.56615 64.0812 0.373127 61.9278 0.209916 59.624C-0.0261375 56.2932 0.065112 52.9011 0.0656015 49.5666L0.0681457 43.9028C0.0684394 42.3097 0.0115559 40.7441 0.245456 39.1618C0.661561 36.3469 2.83764 34.7836 5.54585 34.4898Z" fill="#11192C"/>
<path fill-rule="evenodd" clip-rule="evenodd" d="M29.9693 14.0492C29.4457 5.80622 22.3568 -0.462267 14.1118 0.0267751C5.81788 0.518753 -0.49602 7.65895 0.030701 15.9507C0.557324 24.2425 7.72384 30.5265 16.0134 29.9651C24.254 29.4071 30.4928 22.2921 29.9693 14.0492ZM13.5225 4.41236C19.3734 3.59908 24.7755 7.68387 25.587 13.5351C26.3985 19.3863 22.3119 24.7871 16.4604 25.5968C10.6116 26.406 5.21375 22.3217 4.40263 16.4731C3.5915 10.6246 7.67413 5.22544 13.5225 4.41236Z" fill="#A655F7"/>
<path fill-rule="evenodd" clip-rule="evenodd" d="M65.7259 48.4427C65.2023 40.1998 58.1134 33.9313 49.8684 34.4203C41.5745 34.9123 35.2606 42.0525 35.7873 50.3443C36.3139 58.6361 43.4804 64.9201 51.77 64.3587C60.0106 63.8006 66.2494 56.6856 65.7259 48.4427ZM49.2791 38.8059C55.13 37.9926 60.5321 42.0774 61.3436 47.9287C62.155 53.7799 58.0685 59.1807 52.217 59.9903C46.3682 60.7995 40.9703 56.7152 40.1592 50.8667C39.3481 45.0181 43.4307 39.619 49.2791 38.8059Z" fill="#A655F7"/>
<path d="M50.805 10.5003C51.4572 9.757 52.3047 9.03278 53.0127 8.31351C55.4583 5.85674 57.8231 3.34271 60.3858 1.01303C62.8385 -1.21657 67.1378 1.71497 65.3081 4.99789C64.2499 6.89644 62.3453 8.0979 61.0307 9.656C59.499 11.4713 56.9406 13.3286 55.5895 15.1782C55.7202 15.4565 55.922 15.8734 56.1447 16.0741C58.461 18.1609 60.7528 20.5571 62.9694 22.7281C64.8759 24.5952 67.0151 26.4768 64.8424 29.1564C64.1505 30.0098 63.4288 30.129 62.4358 30.2329C62.3182 30.2331 62.2005 30.2289 62.0831 30.2202C61.5436 30.1813 61.0248 29.987 60.5836 29.6585C60.0771 29.2798 59.3229 28.4667 58.835 27.9867C57.5703 26.7574 56.3237 25.5077 55.0957 24.238C53.6956 22.8131 52.081 21.4065 50.8042 19.8562C50.2799 20.4949 49.3794 21.3205 48.7764 21.9206C47.5494 23.1548 46.3154 24.3815 45.0744 25.6003C43.8338 26.822 42.6495 28.0939 41.3983 29.3004C39.9187 30.7271 38.1244 30.2753 36.5473 29.3639C34.7506 25.5912 36.581 24.6817 39.0667 22.2337L43.2813 18.0216C44.2102 17.1098 45.2503 16.2177 46.1054 15.2512C44.3533 13.5552 42.5877 11.8091 40.8811 10.0044C39.5132 8.55781 36.1504 5.97507 35.806 3.91094C35.4497 1.77645 37.0639 0.58469 38.9502 0.301914C41.0385 0.151809 42.5508 2.35676 43.9471 3.73907L50.805 10.5003Z" fill="#6365EF"/>
</svg>
